<svg xmlns="http://www.w3.org/2000/svg" viewBox="0 0 427.81 131.35"><defs><style>.cls-1{fill:#374250;}.cls-2{fill:#fff;}.cls-3{fill:#ffcf3f;}</style></defs><title>logo IMPORTPLUS_dark-bg</title><g id="Слой_2" data-name="Слой 2"><g id="Текстовая_часть_кривые_" data-name="Текстовая часть (кривые)"><path class="cls-1" d="M0,48.17H10V86H0Z"/><path class="cls-1" d="M21.32,48.17H32.08L44,64.15l11.92-16H66.68V86H56.77V61.29L44,77.44h-.26l-12.64-16V86H21.32Z"/><path class="cls-1" d="M118.84,67.07c0-10.75,10.17-19.55,24.17-19.55s24,8.69,24,19.55-10.17,19.55-24.17,19.55S118.84,77.92,118.84,67.07Zm37.78,0c0-6.48-5.7-11.88-13.74-11.88s-13.61,5.29-13.61,11.88S135,78.95,143,78.95,156.62,73.66,156.62,67.07Z"/><path class="cls-1" d="M233.34,55.83h-13.8V48.17h37.59v7.67h-13.8V86h-10Z"/><path class="cls-1" d="M309.35,48.17h3.37V83.38h26.63V86h-30Z"/><path class="cls-1" d="M347.46,70.25V48.17h3.37V70c0,8.91,5.77,14,15.36,14,9.2,0,15.1-4.64,15.1-13.77V48.17h3.37V69.93c0,10.85-7.58,16.63-18.6,16.63S347.46,80.84,347.46,70.25Z"/><path class="cls-1" d="M394.5,80.46l2.2-2.11A24.42,24.42,0,0,0,413,84c6.8,0,11.47-3.19,11.47-7.61,0-4-2.53-6.32-12.83-8-10.89-1.84-15.29-4.91-15.29-10.75,0-5.62,6.16-9.94,14.58-9.94a25.5,25.5,0,0,1,15.55,4.59l-2.14,2.21a21.92,21.92,0,0,0-13.54-4.27c-6.67,0-11.08,3.19-11.08,7.24s2.46,6.43,13.22,8.26c10.5,1.78,14.91,4.91,14.91,10.53,0,6.1-6.29,10.31-15,10.31A28.79,28.79,0,0,1,394.5,80.46Z"/><path class="cls-1" d="M96.1,48.17H77.57V86h10V55.67h7.71c5,0,8.1,2,8.1,5.72,0,3.35-2.92,5.83-7.91,5.83H90.54v7.4h4.58c10.17,0,18.34-4.54,18.34-13.28C113.47,53.51,106.92,48.17,96.1,48.17Z"/><path class="cls-1" d="M204.06,72.47c5.77-1.78,9.72-5.62,9.72-11.72A10.91,10.91,0,0,0,209.89,52c-3-2.48-7.45-3.83-13.22-3.83H175.93V86h10V75.86h0v-10h0V55.67h9.92c4.86,0,7.84,1.84,7.84,5.4,0,3.29-2.79,5.45-7.65,5.45h-7.11v7.34h4.71L203.47,86h11.66Z"/><path class="cls-1" d="M282.53,48.17H266.07V86h3.37V75.86h0v-10h0V50.76h12.83c8.17,0,13.74,3.13,13.74,9.13,0,5.72-5.7,9.4-14.13,9.4h-9.44v2.59h9.25c9.46,0,17.69-4.1,17.69-12C299.38,52.43,292.51,48.17,282.53,48.17Z"/><path class="cls-1" d="M.31,114.3H1.9L7,121.9l5.08-7.61h1.59v13.94H12.08v-11.3L7,124.41H6.92L1.84,117v11.28H.31Z"/><path class="cls-1" d="M21.57,114.3H31.65v1.43H23.15v4.76h7.61v1.43H23.15v4.88h8.61v1.43H21.57Z"/><path class="cls-1" d="M43.14,120.27l-5.38-6h2L47,122.52V114.3h1.57v8.23l7.27-8.23h2l-5.38,6,5.74,8h-2l-4.88-6.79-2.75,3v3.74H47v-3.74l-2.77-3-4.86,6.79h-2Z"/><path class="cls-1" d="M62.79,126.81h1.43c1.33-2.13,2.11-5.56,2.11-10.08V114.3h9.12v12.51h1.81L77,131.35H75.72v-3.11H64.4l-.28,3.11H62.79Zm11.1,0V115.73h-6v1.81c0,3.61-.7,7.35-1.85,9.26Z"/><path class="cls-1" d="M83.26,127.9l.62-1.25a3.39,3.39,0,0,0,1.77.42c1,0,2-.54,2.79-2.09L82.31,114.3H84.1l5.14,9.1,4.44-9.1h1.71l-5.52,11c-1.14,2.29-2.61,3.17-4.26,3.17A4.83,4.83,0,0,1,83.26,127.9Z"/><path class="cls-1" d="M102.06,114.3h1.57v6.2h8v-6.2h1.57v13.94h-1.57V122h-8v6.27h-1.57Z"/><path class="cls-1" d="M126.34,114.2h1.47l6.35,14h-1.69l-1.63-3.69h-7.59l-1.65,3.69H120Zm3.88,8.94L127.05,116l-3.19,7.11Z"/><path class="cls-1" d="M140.89,114.3h5.22c3.15,0,5.22,1.67,5.22,4.46,0,3-2.51,4.56-5.48,4.56h-3.39v4.92h-1.57Zm5,7.59c2.31,0,3.82-1.24,3.82-3.11s-1.49-3-3.74-3h-3.53v6.14Z"/><path class="cls-1" d="M157.56,121.27a7.11,7.11,0,1,1,7.09,7.21A7.07,7.07,0,0,1,157.56,121.27Zm12.59,0a5.54,5.54,0,0,0-5.5-5.76,5.49,5.49,0,0,0-5.46,5.76,5.54,5.54,0,0,0,5.5,5.76A5.49,5.49,0,0,0,170.15,121.27Z"/><path class="cls-1" d="M176.91,126.81h1.43c1.33-2.13,2.11-5.56,2.11-10.08V114.3h9.12v12.51h1.81l-.24,4.54h-1.31v-3.11H178.53l-.28,3.11h-1.33Zm11.1,0V115.73h-6v1.81c0,3.61-.7,7.35-1.85,9.26Z"/><path class="cls-1" d="M197.68,114.3h1.57v6.2h8v-6.2h1.57v13.94H207.3V122h-8v6.27h-1.57Z"/><path class="cls-1" d="M222,114.2h1.47l6.35,14h-1.69l-1.63-3.69h-7.59l-1.65,3.69H215.6Zm3.88,8.94L222.67,116l-3.19,7.11Z"/><path class="cls-1" d="M239.74,122.64c-2.23-.4-3.8-1.81-3.8-4.14a3.88,3.88,0,0,1,1.06-2.79,5.68,5.68,0,0,1,4.06-1.41h6v13.94h-1.57V122.9h-4l-4.14,5.34h-1.91Zm5.7-1.08v-5.86h-4.28c-2.29,0-3.65,1.14-3.65,2.91s1.51,2.95,3.65,2.95Z"/><path class="cls-1" d="M262.82,128.06l.32-1.27a3.9,3.9,0,0,0,1.24.2c1.08,0,2.89-.66,2.89-10.16V114.3h9v13.94h-1.57V115.73h-5.94v1.51c0,9.78-2,11.16-4.14,11.16A6.13,6.13,0,0,1,262.82,128.06Z"/><path class="cls-1" d="M283.59,121.27a7.11,7.11,0,1,1,7.09,7.21A7.07,7.07,0,0,1,283.59,121.27Zm12.59,0a5.54,5.54,0,0,0-5.5-5.76,5.49,5.49,0,0,0-5.46,5.76,5.54,5.54,0,0,0,5.5,5.76A5.49,5.49,0,0,0,296.18,121.27Z"/><path class="cls-1" d="M305.11,114.3H314v1.43h-7.33v12.51h-1.57Z"/><path class="cls-1" d="M320.82,114.3h1.57v11.57l8.33-11.57h1.49v13.94h-1.55V116.67l-8.31,11.57h-1.53Z"/><path class="cls-1" d="M339.52,121.27a7,7,0,0,1,7.05-7.21,7.19,7.19,0,0,1,5.4,2.25l-1,1.12a6.06,6.06,0,0,0-4.38-1.91,5.77,5.77,0,0,0,0,11.51,6.05,6.05,0,0,0,4.5-2l1,1.1a7.2,7.2,0,0,1-5.58,2.37A7,7,0,0,1,339.52,121.27Z"/><path class="cls-1" d="M362.5,115.73h-4.68V114.3h11v1.43h-4.68v12.51H362.5Z"/><path class="cls-1" d="M375.7,114.3h1.57v11.57l8.33-11.57h1.49v13.94h-1.55V116.67l-8.31,11.57H375.7Z"/><path class="cls-1" d="M395,114.3h1.57v8.33l8-8.33h2l-6,6.1,6.23,7.85h-2l-5.36-6.75-3,3v3.74H395Z"/><path class="cls-1" d="M418.48,114.2H420l6.36,14h-1.69L423,124.55h-7.59l-1.65,3.69h-1.61Zm3.88,8.94L419.19,116,416,123.14Z"/></g><g id="Текстовая_часть_на_темном_кривые_" data-name="Текстовая часть на темном (кривые)"><path class="cls-2" d="M0,48.17H10V86H0Z"/><path class="cls-2" d="M21.32,48.17H32.08L44,64.15l11.92-16H66.68V86H56.77V61.29L44,77.44h-.26l-12.64-16V86H21.32Z"/><path class="cls-2" d="M118.84,67.07c0-10.75,10.17-19.55,24.17-19.55s24,8.69,24,19.55-10.17,19.55-24.17,19.55S118.84,77.92,118.84,67.07Zm37.78,0c0-6.48-5.7-11.88-13.74-11.88s-13.61,5.29-13.61,11.88S135,78.95,143,78.95,156.62,73.66,156.62,67.07Z"/><path class="cls-2" d="M233.34,55.83h-13.8V48.17h37.59v7.67h-13.8V86h-10Z"/><path class="cls-2" d="M309.35,48.17h3.37V83.38h26.63V86h-30Z"/><path class="cls-2" d="M347.46,70.25V48.17h3.37V70c0,8.91,5.77,14,15.36,14,9.2,0,15.1-4.64,15.1-13.77V48.17h3.37V69.93c0,10.85-7.58,16.63-18.6,16.63S347.46,80.84,347.46,70.25Z"/><path class="cls-2" d="M394.5,80.46l2.2-2.11A24.42,24.42,0,0,0,413,84c6.8,0,11.47-3.19,11.47-7.61,0-4-2.53-6.32-12.83-8-10.89-1.84-15.29-4.91-15.29-10.75,0-5.62,6.16-9.94,14.58-9.94a25.5,25.5,0,0,1,15.55,4.59l-2.14,2.21a21.92,21.92,0,0,0-13.54-4.27c-6.67,0-11.08,3.19-11.08,7.24s2.46,6.43,13.22,8.26c10.5,1.78,14.91,4.91,14.91,10.53,0,6.1-6.29,10.31-15,10.31A28.79,28.79,0,0,1,394.5,80.46Z"/><path class="cls-2" d="M96.1,48.17H77.57V86h10V55.67h7.71c5,0,8.1,2,8.1,5.72,0,3.35-2.92,5.83-7.91,5.83H90.54v7.4h4.58c10.17,0,18.34-4.54,18.34-13.28C113.47,53.51,106.92,48.17,96.1,48.17Z"/><path class="cls-2" d="M204.06,72.47c5.77-1.78,9.72-5.62,9.72-11.72A10.91,10.91,0,0,0,209.89,52c-3-2.48-7.45-3.83-13.22-3.83H175.93V86h10V75.86h0v-10h0V55.67h9.92c4.86,0,7.84,1.84,7.84,5.4,0,3.29-2.79,5.45-7.65,5.45h-7.11v7.34h4.71L203.47,86h11.66Z"/><path class="cls-2" d="M282.53,48.17H266.07V86h3.37V75.86h0v-10h0V50.76h12.83c8.17,0,13.74,3.13,13.74,9.13,0,5.72-5.7,9.4-14.13,9.4h-9.44v2.59h9.25c9.46,0,17.69-4.1,17.69-12C299.38,52.43,292.51,48.17,282.53,48.17Z"/><path class="cls-2" d="M.31,114.3H1.9L7,121.9l5.08-7.61h1.59v13.94H12.08v-11.3L7,124.41H6.92L1.84,117v11.28H.31Z"/><path class="cls-2" d="M21.57,114.3H31.65v1.43H23.15v4.76h7.61v1.43H23.15v4.88h8.61v1.43H21.57Z"/><path class="cls-2" d="M43.14,120.27l-5.38-6h2L47,122.52V114.3h1.57v8.23l7.27-8.23h2l-5.38,6,5.74,8h-2l-4.88-6.79-2.75,3v3.74H47v-3.74l-2.77-3-4.86,6.79h-2Z"/><path class="cls-2" d="M62.79,126.81h1.43c1.33-2.13,2.11-5.56,2.11-10.08V114.3h9.12v12.51h1.81L77,131.35H75.72v-3.11H64.4l-.28,3.11H62.79Zm11.1,0V115.73h-6v1.81c0,3.61-.7,7.35-1.85,9.26Z"/><path class="cls-2" d="M83.26,127.9l.62-1.25a3.39,3.39,0,0,0,1.77.42c1,0,2-.54,2.79-2.09L82.31,114.3H84.1l5.14,9.1,4.44-9.1h1.71l-5.52,11c-1.14,2.29-2.61,3.17-4.26,3.17A4.83,4.83,0,0,1,83.26,127.9Z"/><path class="cls-2" d="M102.06,114.3h1.57v6.2h8v-6.2h1.57v13.94h-1.57V122h-8v6.27h-1.57Z"/><path class="cls-2" d="M126.34,114.2h1.47l6.35,14h-1.69l-1.63-3.69h-7.59l-1.65,3.69H120Zm3.88,8.94L127.05,116l-3.19,7.11Z"/><path class="cls-2" d="M140.89,114.3h5.22c3.15,0,5.22,1.67,5.22,4.46,0,3-2.51,4.56-5.48,4.56h-3.39v4.92h-1.57Zm5,7.59c2.31,0,3.82-1.24,3.82-3.11s-1.49-3-3.74-3h-3.53v6.14Z"/><path class="cls-2" d="M157.56,121.27a7.11,7.11,0,1,1,7.09,7.21A7.07,7.07,0,0,1,157.56,121.27Zm12.59,0a5.54,5.54,0,0,0-5.5-5.76,5.49,5.49,0,0,0-5.46,5.76,5.54,5.54,0,0,0,5.5,5.76A5.49,5.49,0,0,0,170.15,121.27Z"/><path class="cls-2" d="M176.91,126.81h1.43c1.33-2.13,2.11-5.56,2.11-10.08V114.3h9.12v12.51h1.81l-.24,4.54h-1.31v-3.11H178.53l-.28,3.11h-1.33Zm11.1,0V115.73h-6v1.81c0,3.61-.7,7.35-1.85,9.26Z"/><path class="cls-2" d="M197.68,114.3h1.57v6.2h8v-6.2h1.57v13.94H207.3V122h-8v6.27h-1.57Z"/><path class="cls-2" d="M222,114.2h1.47l6.35,14h-1.69l-1.63-3.69h-7.59l-1.65,3.69H215.6Zm3.88,8.94L222.67,116l-3.19,7.11Z"/><path class="cls-2" d="M239.74,122.64c-2.23-.4-3.8-1.81-3.8-4.14a3.88,3.88,0,0,1,1.06-2.79,5.68,5.68,0,0,1,4.06-1.41h6v13.94h-1.57V122.9h-4l-4.14,5.34h-1.91Zm5.7-1.08v-5.86h-4.28c-2.29,0-3.65,1.14-3.65,2.91s1.51,2.95,3.65,2.95Z"/><path class="cls-2" d="M262.82,128.06l.32-1.27a3.9,3.9,0,0,0,1.24.2c1.08,0,2.89-.66,2.89-10.16V114.3h9v13.94h-1.57V115.73h-5.94v1.51c0,9.78-2,11.16-4.14,11.16A6.13,6.13,0,0,1,262.82,128.06Z"/><path class="cls-2" d="M283.59,121.27a7.11,7.11,0,1,1,7.09,7.21A7.07,7.07,0,0,1,283.59,121.27Zm12.59,0a5.54,5.54,0,0,0-5.5-5.76,5.49,5.49,0,0,0-5.46,5.76,5.54,5.54,0,0,0,5.5,5.76A5.49,5.49,0,0,0,296.18,121.27Z"/><path class="cls-2" d="M305.11,114.3H314v1.43h-7.33v12.51h-1.57Z"/><path class="cls-2" d="M320.82,114.3h1.57v11.57l8.33-11.57h1.49v13.94h-1.55V116.67l-8.31,11.57h-1.53Z"/><path class="cls-2" d="M339.52,121.27a7,7,0,0,1,7.05-7.21,7.19,7.19,0,0,1,5.4,2.25l-1,1.12a6.06,6.06,0,0,0-4.38-1.91,5.77,5.77,0,0,0,0,11.51,6.05,6.05,0,0,0,4.5-2l1,1.1a7.2,7.2,0,0,1-5.58,2.37A7,7,0,0,1,339.52,121.27Z"/><path class="cls-2" d="M362.5,115.73h-4.68V114.3h11v1.43h-4.68v12.51H362.5Z"/><path class="cls-2" d="M375.7,114.3h1.57v11.57l8.33-11.57h1.49v13.94h-1.55V116.67l-8.31,11.57H375.7Z"/><path class="cls-2" d="M395,114.3h1.57v8.33l8-8.33h2l-6,6.1,6.23,7.85h-2l-5.36-6.75-3,3v3.74H395Z"/><path class="cls-2" d="M418.48,114.2H420l6.36,14h-1.69L423,124.55h-7.59l-1.65,3.69h-1.61Zm3.88,8.94L419.19,116,416,123.14Z"/></g><g id="Иконочная_часть" data-name="Иконочная часть"><path class="cls-3" d="M63.66,25.88A270.72,270.72,0,0,1,99.71,13.7c3.07-.85,6.16-1.56,9.25-2.29s6.2-1.41,9.31-2.09,6.24-1.24,9.36-1.83S133.9,6.4,137,5.88c6.28-1,12.58-1.93,18.9-2.6l4.74-.54,4.75-.46,4.75-.46,4.75-.38C187.62.52,200.34.1,213.05,0c12.72.11,25.44.51,38.12,1.46l4.75.38,4.75.46,4.75.46,4.74.54c6.32.67,12.62,1.58,18.9,2.6,3.14.52,6.28,1,9.4,1.61s6.26,1.11,9.36,1.83,6.22,1.32,9.31,2.08,6.19,1.44,9.25,2.29a271.21,271.21,0,0,1,36.06,12.17l-.19.57c-24-7.77-48.82-12.67-73.8-15.88A596,596,0,0,0,213.05,6a596.57,596.57,0,0,0-75.41,4.58c-25,3.21-49.82,8.11-73.8,15.88Z"/></g></g></svg>