<svg id="Layer_1" xmlns="http://www.w3.org/2000/svg" viewBox="0 0 512 512"><style>.st0{fill:#7ea9d6}</style><path class="st0" d="M224 166.9c-28.5 0-51.7-23.2-51.7-51.7 0-28.5 23.2-51.7 51.7-51.7h64c28.5 0 51.7 23.2 51.7 51.7 0 28.5-23.2 51.7-51.7 51.7h-64zm0-76.8c-13.8 0-25.1 11.3-25.1 25.1s11.3 25.1 25.1 25.1h64c13.8 0 25.1-11.3 25.1-25.1S301.8 90.1 288 90.1h-64z"/><path class="st0" d="M288 64c28.2 0 51.2 23 51.2 51.2 0 28.2-23 51.2-51.2 51.2h-64c-28.2 0-51.2-23-51.2-51.2 0-28.2 23-51.2 51.2-51.2h64m-64 76.8h64c14.1 0 25.6-11.5 25.6-25.6 0-14.1-11.5-25.6-25.6-25.6h-64c-14.1 0-25.6 11.5-25.6 25.6 0 14.1 11.5 25.6 25.6 25.6M288 63h-64c-28.8 0-52.2 23.4-52.2 52.2s23.4 52.2 52.2 52.2h64c28.8 0 52.2-23.4 52.2-52.2S316.8 63 288 63zm-64 76.8c-13.6 0-24.6-11-24.6-24.6s11-24.6 24.6-24.6h64c13.6 0 24.6 11 24.6 24.6s-11 24.6-24.6 24.6h-64z"/><g><path class="st0" d="M133.7 512.5c-5.8 0-11.4-1.9-16-5.5-54.8-42.5-86.2-106-86.2-174.2 0-30.3 6.2-59.8 18.4-87.6 12.2-27.7 29.6-52.3 52-73.2v-44C101.9 57.1 159.5-.5 230.4-.5h51.2c70.9 0 128.5 57.6 128.5 128.5v43.5c22.3 20.8 39.8 45.5 52 73.2 12.2 27.9 18.4 57.5 18.4 88 0 68.2-31.4 131.7-86.2 174.2-4.6 3.5-10.2 5.5-16 5.5H133.7zm244.5-26.6c48.1-37.4 75.7-93.2 75.7-153.1 0-57.5-25.6-111.9-70.2-149.1l-.2-.1V128c0-56.2-45.7-101.9-101.9-101.9h-51.2c-56.2 0-101.9 45.7-101.9 101.9v56l-.2.1c-44.6 37.4-70.2 91.5-70.2 148.6 0 59.9 27.6 115.7 75.7 153.1h244.4z"/><path class="st0" d="M281.6 0c70.6 0 128 57.4 128 128v43.8c44.9 41.8 70.4 99.8 70.4 161 0 68.1-31.3 131.4-86 173.8-4.5 3.5-10 5.4-15.7 5.4H133.7c-5.7 0-11.2-1.9-15.7-5.4-54.6-42.4-86-105.8-86-173.8 0-60.8 25.5-118.6 70.4-160.5V128c0-70.6 57.4-128 128-128h51.2M133.7 486.4h244.7c46.2-35.8 76.1-91.1 76.1-153.6 0-60-27.4-113.6-70.4-149.5V128c0-56.6-45.8-102.4-102.4-102.4h-51.2C173.8 25.6 128 71.4 128 128v55.8c-42.9 35.9-70.4 89.1-70.4 149 0 62.5 29.9 117.8 76.1 153.6M281.6-1h-51.2c-71.1 0-129 57.9-129 129v43.8c-22.3 20.9-39.8 45.5-51.9 73.2C37.2 272.9 31 302.4 31 332.8c0 68.4 31.5 132 86.4 174.6 4.6 3.6 10.4 5.6 16.3 5.6h244.7c5.9 0 11.7-2 16.3-5.6 54.9-42.6 86.4-106.2 86.4-174.6 0-30.6-6.2-60.2-18.4-88.2-12.2-27.8-29.6-52.4-52-73.3V128c-.1-71.1-58-129-129.1-129zM134 485.4c-47.9-37.3-75.4-92.9-75.4-152.6 0-56.9 25.5-111 70-148.2l.4-.3V128c0-55.9 45.5-101.4 101.4-101.4h51.2C337.5 26.6 383 72.1 383 128v55.8l.4.3c44.5 37.1 70 91.4 70 148.7 0 59.7-27.5 115.3-75.4 152.6H134z"/></g></svg>