<svg xmlns="http://www.w3.org/2000/svg" viewBox="0 0 198.118 198.118" width="512" height="512"><g fill="#7ea9d6"><path d="M140.821 104.068V82.816l-62.1 23.026V82.816L37.854 97.969V35.053H13.757v71.86L0 112.02v84.715h198.118V82.82l-57.297 21.248zm-121.42 6.771V40.708h12.805v65.389l40.867-15.16v23.03l62.093-23.03v21.255l57.308-21.255v80.166H5.644v-55.157l13.757-5.107zM5.644 191.095v-14.33h186.83v14.33H5.644z"/><path d="M63.203 113.079H35.277v32.16h27.926v-32.16zm-22.279 26.519V118.73h16.634v20.868H40.924zM124.161 113.079H96.239v32.16h27.922v-32.16zm-22.278 26.519V118.73h16.627v20.868h-16.627zM182.364 113.079h-27.933v32.16h27.933v-32.16zm-22.278 26.519V118.73h16.627v20.868h-16.627z"/><g><path d="M25.224 26.507c.956-10.486 6.467-11.334 13.027-11.334 1.099 0 2.237.036 3.418.057 1.17.039 2.373.075 3.582.075 7.451 0 14.92-1.278 19.036-10.543l.236-.54-3.167-1.399-.236.532c-3.139 7.057-8.364 8.478-15.786 8.478-1.167 0-2.355-.036-3.582-.068-1.131-.021-2.269-.057-3.4-.057-7.38 0-15.36 1.12-16.574 14.484l-.057.576 3.454.311.049-.572z"/><path d="M26.158 28.264l-5.626-.508.161-1.671c1.392-15.428 11.474-15.665 21.09-15.407 1.21.029 2.394.064 3.547.064 7.165 0 11.875-1.278 14.791-7.831l.687-1.528 5.146 2.29-.673 1.517c-5.096 11.477-15.228 11.356-23.649 11.127-1.238-.029-2.337-.061-3.382-.061-6.438 0-11.066.744-11.946 10.343l-.146 1.665zm-3.243-2.484l1.274.118c1.185-10.887 7.591-11.81 14.061-11.81 1.07 0 2.172.029 3.321.057 9.913.261 17.282-.379 21.512-9.366L61.9 4.261c-3.396 7.176-9.087 8.664-16.57 8.664-1.17 0-2.373-.036-3.604-.068-8.221-.218-17.336-.934-18.811 12.923z"/></g></g></svg>