<svg id="Слой_1" xmlns="http://www.w3.org/2000/svg" viewBox="0 0 64 64"><style>.st0{fill:#7ea9d6}</style><path class="st0" d="M45.8 5.3C41.6 3 36.8 1.9 32 1.8 15.7 1.8 2.5 15.1 2.5 31.4c0 7.7 3 15.1 8.4 20.6l-1.2 8.8c-.1.6.3 1.2 1 1.3.3 0 .6 0 .8-.2l6.7-4.5c14.4 7.6 32.3 2.1 40-12.3s2-32.2-12.4-39.8zm5.6 45.2c-5.1 5.2-12.1 8.1-19.4 8.1-4.7 0-9.3-1.2-13.4-3.5-.4-.2-.8-.2-1.2 0l-5.3 3.4 1-6.8c.1-.4-.1-.7-.3-1C2.2 40.2 2.1 23 12.6 12.3S40.4 1.5 51.1 12s10.9 27.8.3 38.5z"/><path class="st0" d="M38.7 41.9h-1V24.6c0-.6-.5-1.2-1.2-1.2h-10c-.6 0-1.2.5-1.2 1.2v4.2c0 .6.5 1.2 1.2 1.2h1v11.9h-1c-.6 0-1.2.5-1.2 1.2v4.2c0 .6.5 1.2 1.2 1.2h12.2c.6 0 1.2-.5 1.2-1.2V43c0-.6-.5-1.1-1.2-1.1zm-11 4.2v-1.9h1c.6 0 1.2-.5 1.2-1.2V28.8c0-.6-.5-1.2-1.2-1.2h-1v-1.9h7.7V43c0 .6.5 1.2 1.2 1.2h1v1.9h-9.9zM32 12.1c-2.7 0-4.9 2.2-4.9 4.9s2.2 4.9 4.9 4.9 4.9-2.2 4.9-4.9-2.2-4.9-4.9-4.9zm0 7.4c-1.4 0-2.6-1.1-2.6-2.6 0-1.4 1.1-2.6 2.5-2.6s2.6 1.1 2.6 2.6-1.1 2.6-2.5 2.6z"/></svg>