<svg id="Слой_1" xmlns="http://www.w3.org/2000/svg" viewBox="0 0 64 64"><style>.st0{fill:#7ea9d6;stroke:#fff;stroke-width:.4;stroke-miterlimit:10}</style><path class="st0" d="M50.1 2.4H13.9c-1.4 0-2.5 1.1-2.5 2.5v47.6c0 1.4 1.1 2.5 2.5 2.5h3.8v5.3c0 .7.6 1.2 1.2 1.2.4 0 .7-.2.9-.4l2.7-3.2 2.7 3.2c.4.5 1.2.6 1.7.1.3-.2.4-.6.4-.9V55h22.6c1.4 0 2.5-1.1 2.5-2.5V4.9c.2-1.4-.9-2.5-2.3-2.5zM23.5 55.3c-.4-.5-1.2-.6-1.7-.1l-.1.1-1.5 1.7v-4.7c1.6.6 3.3.6 4.8 0V57l-1.5-1.7zm3.6-9.6c0 2.5-2 4.5-4.5 4.5s-4.5-2-4.5-4.5 2-4.5 4.5-4.5 4.5 2 4.5 4.5zM50 52.5H27.5v-1.8c2.8-2.7 2.8-7.1.1-9.9-2.7-2.8-7.1-2.8-9.9-.1s-2.8 7.1-.1 9.9l.1.1v1.8h-3.8V4.9h36.2L50 52.5z"/><path class="st0" d="M42.7 12.2H21.3c-.7 0-1.2.6-1.2 1.2 0 .7.6 1.2 1.2 1.2h21.4c.7 0 1.2-.6 1.2-1.2 0-.7-.5-1.2-1.2-1.2zM42.7 19.3H21.3c-.7 0-1.2.6-1.2 1.2s.6 1.2 1.2 1.2h21.4c.7 0 1.2-.6 1.2-1.2s-.5-1.2-1.2-1.2zM42.7 26.3H21.3c-.7 0-1.2.6-1.2 1.2s.6 1.2 1.2 1.2h21.4c.7 0 1.2-.6 1.2-1.2s-.5-1.2-1.2-1.2zM42.7 33.4H21.3c-.7 0-1.2.6-1.2 1.2s.6 1.2 1.2 1.2h21.4c.7 0 1.2-.6 1.2-1.2s-.5-1.2-1.2-1.2zM42.7 40.5h-9.8c-.7 0-1.2.6-1.2 1.2s.6 1.2 1.2 1.2h9.8c.7 0 1.2-.6 1.2-1.2s-.5-1.2-1.2-1.2z"/></svg>