<?xml version="1.0" encoding="utf-8"?>
<!-- Generator: Adobe Illustrator 21.0.0, SVG Export Plug-In . SVG Version: 6.00 Build 0)  -->
<svg version="1.1" id="Слой_1" xmlns="http://www.w3.org/2000/svg" xmlns:xlink="http://www.w3.org/1999/xlink" x="0px" y="0px"
	 viewBox="0 0 64 64" style="enable-background:new 0 0 64 64;" xml:space="preserve">
<style type="text/css">
	.st0{fill:none;stroke:#7EA9D6;stroke-width:2;stroke-linecap:round;stroke-linejoin:round;stroke-miterlimit:10;}
	.st1{display:none;}
	.st2{display:inline;fill:#7EA9D6;stroke:#7EA9D6;stroke-width:1.5;stroke-miterlimit:10;}
	.st3{display:inline;fill:#7EA9D6;stroke:#7EA9D6;stroke-width:0.7;stroke-miterlimit:10;}
	.st4{fill:#7EA9D6;stroke:#7EA9D6;stroke-width:0.5;stroke-miterlimit:10;}
	.st5{fill:#7EA9D6;stroke:#7EA9D6;stroke-miterlimit:10;}
</style>
<g id="Слой_1_1_">
	<title>Money Box</title>
	<desc>A line styled icon from Orion Icon Library.</desc>
	<polyline class="st0" points="34.7,45.5 2.6,45.5 2.6,11.7 62.1,11.7 62.1,45.5 55,45.5 	"/>
	<line class="st0" x1="28.3" y1="38.8" x2="28.3" y2="19.1"/>
	<path class="st0" d="M28.3,19.1h6.2c2.8,0,5,2.2,5,5l0,0c0,2.8-2.2,5-5,5H24.2"/>
	<line class="st0" x1="36.6" y1="33.6" x2="24.2" y2="33.6"/>
	<g class="st1">
		<path class="st2" d="M48.2,40.3V39c0-1.9-1.7-3.4-3.8-3.4s-3.8,1.5-3.8,3.4v1.3c-0.8,0.1-1.4,0.8-1.4,1.7v4.6
			c0,0.9,0.8,1.7,1.7,1.7h7c0.9,0,1.7-0.8,1.7-1.7V42C49.6,41.2,49,40.5,48.2,40.3z M41.1,39c0-1.6,1.5-2.9,3.3-2.9s3.3,1.3,3.3,2.9
			v1.3h-6.6V39z M49.1,46.6c0,0.7-0.6,1.2-1.2,1.2h-7c-0.7,0-1.2-0.6-1.2-1.2V42c0-0.7,0.6-1.2,1.2-1.2h7c0.7,0,1.2,0.6,1.2,1.2
			V46.6z"/>
		<path class="st3" d="M44.4,42.3c-0.7,0-1.2,0.5-1.2,1.2v1.8c0,0.7,0.5,1.2,1.2,1.2s1.2-0.5,1.2-1.2v-1.8
			C45.6,42.8,45.1,42.3,44.4,42.3z M45,45.3c0,0.3-0.3,0.6-0.6,0.6s-0.6-0.3-0.6-0.6v-1.8c0-0.3,0.3-0.6,0.6-0.6s0.6,0.3,0.6,0.6
			V45.3z"/>
	</g>
</g>
<g id="Слой_2">
	<g>
		<g>
			<path class="st4" d="M45.4,45c-1,0-2,0.9-2,2c0,0.6,0.2,1,0.6,1.4v1.7c0,0.7,0.6,1.4,1.4,1.4c0.7,0,1.4-0.6,1.4-1.4v-1.7
				c0.3-0.3,0.6-0.9,0.6-1.4C47.4,45.9,46.5,45,45.4,45z M46.1,47.7c-0.2,0.2-0.2,0.5-0.2,0.7v1.7c0,0.3-0.2,0.5-0.5,0.5
				c-0.2,0-0.5-0.2-0.5-0.5v-1.7c0-0.2,0-0.5-0.2-0.7c-0.2-0.2-0.3-0.5-0.3-0.7c0-0.6,0.5-1,1-1s1,0.5,1,1
				C46.4,47.3,46.3,47.6,46.1,47.7z"/>
		</g>
	</g>
	<g>
		<g>
			<path class="st5" d="M51.2,42.5h-1.4v-3.7c0-2.3-2-4.3-4.3-4.3s-4.3,2-4.3,4.3v3.7h-1.4c-0.8,0-1.4,0.6-1.4,1.4v8.7
				c0,0.8,0.6,1.4,1.4,1.4h11.4c0.8,0,1.4-0.6,1.4-1.4V44C52.6,43.2,51.9,42.5,51.2,42.5z M42,38.8c0-1.9,1.5-3.4,3.4-3.4
				c1.9,0,3.4,1.5,3.4,3.4v3.7H42C42,42.5,42,38.8,42,38.8z M51.6,52.7L51.6,52.7c0,0.2-0.2,0.5-0.5,0.5H39.8
				c-0.2,0-0.5-0.2-0.5-0.5V44c0-0.2,0.2-0.5,0.5-0.5h11.4c0.2,0,0.5,0.2,0.5,0.5V52.7z"/>
		</g>
	</g>
</g>
</svg>
