<svg id="Слой_1" xmlns="http://www.w3.org/2000/svg" viewBox="0 0 74 74"><style>.st0{fill:none;stroke:#7ea9d6;stroke-linecap:round;stroke-linejoin:round}</style><title>Airplane</title><desc>A line styled icon from Orion Icon Library.</desc><path class="st0" d="M37 12.8v14.4M13.5 44.4c-5.8-1.6-10.7-3.6-12.4-5.6 0 0-.7-1.9 1.1-1.9h24.2m2 9.5l-5.8-.4m37.9-1.6c5.8-1.4 10.7-3.5 12.4-5.5 0 0 .7-1.9-1.1-1.9H47.7m-2.1 9.4l5.8-.4"/><circle class="st0" cx="17.8" cy="46.4" r="4.8"/><circle class="st0" cx="56.2" cy="46.4" r="4.8"/><ellipse class="st0" cx="37" cy="39.2" rx="10.8" ry="12"/><path class="st0" d="M27.4 33.7s4.8 5.5 9.6 5.5 9.6-5.5 9.6-5.5"/></svg>