<svg xmlns="http://www.w3.org/2000/svg" viewBox="0 0 427.81 131.35"><defs><style>.cls-1{fill:#374250}.cls-2{fill:#fff}.cls-3{fill:#ffcf3f}</style></defs><title>logo IMPORTPLUS_dark-bg</title><g id="Слой_2" data-name="Слой 2"><g id="Текстовая_часть_кривые_" data-name="Текстовая часть (кривые)"><path class="cls-1" d="M0 48.17h10V86H0zM21.32 48.17h10.76L44 64.15l11.92-16h10.76V86h-9.91V61.29L44 77.44h-.26l-12.64-16V86h-9.78zM118.84 67.07c0-10.75 10.17-19.55 24.17-19.55s24 8.69 24 19.55-10.17 19.55-24.17 19.55-24-8.7-24-19.55zm37.78 0c0-6.48-5.7-11.88-13.74-11.88s-13.61 5.29-13.61 11.88S135 78.95 143 78.95s13.62-5.29 13.62-11.88zM233.34 55.83h-13.8v-7.66h37.59v7.67h-13.8V86h-10zM309.35 48.17h3.37v35.21h26.63V86h-30zM347.46 70.25V48.17h3.37V70c0 8.91 5.77 14 15.36 14 9.2 0 15.1-4.64 15.1-13.77V48.17h3.37v21.76c0 10.85-7.58 16.63-18.6 16.63s-18.6-5.72-18.6-16.31zM394.5 80.46l2.2-2.11A24.42 24.42 0 0 0 413 84c6.8 0 11.47-3.19 11.47-7.61 0-4-2.53-6.32-12.83-8-10.89-1.84-15.29-4.91-15.29-10.75 0-5.62 6.16-9.94 14.58-9.94a25.5 25.5 0 0 1 15.55 4.59l-2.14 2.21a21.92 21.92 0 0 0-13.54-4.27c-6.67 0-11.08 3.19-11.08 7.24s2.46 6.43 13.22 8.26c10.5 1.78 14.91 4.91 14.91 10.53 0 6.1-6.29 10.31-15 10.31a28.79 28.79 0 0 1-18.35-6.11zM96.1 48.17H77.57V86h10V55.67h7.71c5 0 8.1 2 8.1 5.72 0 3.35-2.92 5.83-7.91 5.83h-4.93v7.4h4.58c10.17 0 18.34-4.54 18.34-13.28.01-7.83-6.54-13.17-17.36-13.17zM204.06 72.47c5.77-1.78 9.72-5.62 9.72-11.72a10.91 10.91 0 0 0-3.89-8.75c-3-2.48-7.45-3.83-13.22-3.83h-20.74V86h10V55.67h9.92c4.86 0 7.84 1.84 7.84 5.4 0 3.29-2.79 5.45-7.65 5.45h-7.11v7.34h4.71L203.47 86h11.66zM282.53 48.17h-16.46V86h3.37V50.76h12.83c8.17 0 13.74 3.13 13.74 9.13 0 5.72-5.7 9.4-14.13 9.4h-9.44v2.59h9.25c9.46 0 17.69-4.1 17.69-12 0-7.45-6.87-11.71-16.85-11.71zM.31 114.3H1.9l5.1 7.6 5.08-7.61h1.59v13.94h-1.59v-11.3L7 124.41h-.08L1.84 117v11.28H.31zM21.57 114.3h10.08v1.43h-8.5v4.76h7.61v1.43h-7.61v4.88h8.61v1.43H21.57zM43.14 120.27l-5.38-6h2l7.24 8.25v-8.22h1.57v8.23l7.27-8.23h2l-5.38 6 5.74 8h-2l-4.88-6.79-2.75 3v3.74H47v-3.74l-2.77-3-4.86 6.79h-2zM62.79 126.81h1.43c1.33-2.13 2.11-5.56 2.11-10.08v-2.43h9.12v12.51h1.81l-.26 4.54h-1.28v-3.11H64.4l-.28 3.11h-1.33zm11.1 0v-11.08h-6v1.81c0 3.61-.7 7.35-1.85 9.26zM83.26 127.9l.62-1.25a3.39 3.39 0 0 0 1.77.42c1 0 2-.54 2.79-2.09l-6.13-10.68h1.79l5.14 9.1 4.44-9.1h1.71l-5.52 11c-1.14 2.29-2.61 3.17-4.26 3.17a4.83 4.83 0 0 1-2.35-.57zM102.06 114.3h1.57v6.2h8v-6.2h1.57v13.94h-1.57V122h-8v6.27h-1.57zM126.34 114.2h1.47l6.35 14h-1.69l-1.63-3.69h-7.59l-1.65 3.69H120zm3.88 8.94l-3.17-7.14-3.19 7.11zM140.89 114.3h5.22c3.15 0 5.22 1.67 5.22 4.46 0 3-2.51 4.56-5.48 4.56h-3.39v4.92h-1.57zm5 7.59c2.31 0 3.82-1.24 3.82-3.11s-1.49-3-3.74-3h-3.53v6.14zM157.56 121.27a7.11 7.11 0 1 1 7.09 7.21 7.07 7.07 0 0 1-7.09-7.21zm12.59 0a5.54 5.54 0 0 0-5.5-5.76 5.49 5.49 0 0 0-5.46 5.76 5.54 5.54 0 0 0 5.5 5.76 5.49 5.49 0 0 0 5.46-5.76zM176.91 126.81h1.43c1.33-2.13 2.11-5.56 2.11-10.08v-2.43h9.12v12.51h1.81l-.24 4.54h-1.31v-3.11h-11.3l-.28 3.11h-1.33zm11.1 0v-11.08h-6v1.81c0 3.61-.7 7.35-1.85 9.26zM197.68 114.3h1.57v6.2h8v-6.2h1.57v13.94h-1.52V122h-8v6.27h-1.57zM222 114.2h1.47l6.35 14h-1.69l-1.63-3.69h-7.59l-1.65 3.69h-1.66zm3.88 8.94l-3.21-7.14-3.19 7.11zM239.74 122.64c-2.23-.4-3.8-1.81-3.8-4.14a3.88 3.88 0 0 1 1.06-2.79 5.68 5.68 0 0 1 4.06-1.41h6v13.94h-1.57v-5.34h-4l-4.14 5.34h-1.91zm5.7-1.08v-5.86h-4.28c-2.29 0-3.65 1.14-3.65 2.91s1.51 2.95 3.65 2.95zM262.82 128.06l.32-1.27a3.9 3.9 0 0 0 1.24.2c1.08 0 2.89-.66 2.89-10.16v-2.53h9v13.94h-1.57v-12.51h-5.94v1.51c0 9.78-2 11.16-4.14 11.16a6.13 6.13 0 0 1-1.8-.34zM283.59 121.27a7.11 7.11 0 1 1 7.09 7.21 7.07 7.07 0 0 1-7.09-7.21zm12.59 0a5.54 5.54 0 0 0-5.5-5.76 5.49 5.49 0 0 0-5.46 5.76 5.54 5.54 0 0 0 5.5 5.76 5.49 5.49 0 0 0 5.46-5.76zM305.11 114.3H314v1.43h-7.33v12.51h-1.57zM320.82 114.3h1.57v11.57l8.33-11.57h1.49v13.94h-1.55v-11.57l-8.31 11.57h-1.53zM339.52 121.27a7 7 0 0 1 7.05-7.21 7.19 7.19 0 0 1 5.4 2.25l-1 1.12a6.06 6.06 0 0 0-4.38-1.91 5.77 5.77 0 0 0 0 11.51 6.05 6.05 0 0 0 4.5-2l1 1.1a7.2 7.2 0 0 1-5.58 2.37 7 7 0 0 1-6.99-7.23zM362.5 115.73h-4.68v-1.43h11v1.43h-4.68v12.51h-1.64zM375.7 114.3h1.57v11.57l8.33-11.57h1.49v13.94h-1.55v-11.57l-8.31 11.57h-1.53zM395 114.3h1.57v8.33l8-8.33h2l-6 6.1 6.23 7.85h-2l-5.36-6.75-3 3v3.74H395zM418.48 114.2H420l6.36 14h-1.69l-1.67-3.65h-7.59l-1.65 3.69h-1.61zm3.88 8.94l-3.17-7.14-3.19 7.14z"/></g><g id="Текстовая_часть_на_темном_кривые_" data-name="Текстовая часть на темном (кривые)"><path class="cls-2" d="M0 48.17h10V86H0zM21.32 48.17h10.76L44 64.15l11.92-16h10.76V86h-9.91V61.29L44 77.44h-.26l-12.64-16V86h-9.78zM118.84 67.07c0-10.75 10.17-19.55 24.17-19.55s24 8.69 24 19.55-10.17 19.55-24.17 19.55-24-8.7-24-19.55zm37.78 0c0-6.48-5.7-11.88-13.74-11.88s-13.61 5.29-13.61 11.88S135 78.95 143 78.95s13.62-5.29 13.62-11.88zM233.34 55.83h-13.8v-7.66h37.59v7.67h-13.8V86h-10zM309.35 48.17h3.37v35.21h26.63V86h-30zM347.46 70.25V48.17h3.37V70c0 8.91 5.77 14 15.36 14 9.2 0 15.1-4.64 15.1-13.77V48.17h3.37v21.76c0 10.85-7.58 16.63-18.6 16.63s-18.6-5.72-18.6-16.31zM394.5 80.46l2.2-2.11A24.42 24.42 0 0 0 413 84c6.8 0 11.47-3.19 11.47-7.61 0-4-2.53-6.32-12.83-8-10.89-1.84-15.29-4.91-15.29-10.75 0-5.62 6.16-9.94 14.58-9.94a25.5 25.5 0 0 1 15.55 4.59l-2.14 2.21a21.92 21.92 0 0 0-13.54-4.27c-6.67 0-11.08 3.19-11.08 7.24s2.46 6.43 13.22 8.26c10.5 1.78 14.91 4.91 14.91 10.53 0 6.1-6.29 10.31-15 10.31a28.79 28.79 0 0 1-18.35-6.11zM96.1 48.17H77.57V86h10V55.67h7.71c5 0 8.1 2 8.1 5.72 0 3.35-2.92 5.83-7.91 5.83h-4.93v7.4h4.58c10.17 0 18.34-4.54 18.34-13.28.01-7.83-6.54-13.17-17.36-13.17zM204.06 72.47c5.77-1.78 9.72-5.62 9.72-11.72a10.91 10.91 0 0 0-3.89-8.75c-3-2.48-7.45-3.83-13.22-3.83h-20.74V86h10V55.67h9.92c4.86 0 7.84 1.84 7.84 5.4 0 3.29-2.79 5.45-7.65 5.45h-7.11v7.34h4.71L203.47 86h11.66zM282.53 48.17h-16.46V86h3.37V50.76h12.83c8.17 0 13.74 3.13 13.74 9.13 0 5.72-5.7 9.4-14.13 9.4h-9.44v2.59h9.25c9.46 0 17.69-4.1 17.69-12 0-7.45-6.87-11.71-16.85-11.71zM.31 114.3H1.9l5.1 7.6 5.08-7.61h1.59v13.94h-1.59v-11.3L7 124.41h-.08L1.84 117v11.28H.31zM21.57 114.3h10.08v1.43h-8.5v4.76h7.61v1.43h-7.61v4.88h8.61v1.43H21.57zM43.14 120.27l-5.38-6h2l7.24 8.25v-8.22h1.57v8.23l7.27-8.23h2l-5.38 6 5.74 8h-2l-4.88-6.79-2.75 3v3.74H47v-3.74l-2.77-3-4.86 6.79h-2zM62.79 126.81h1.43c1.33-2.13 2.11-5.56 2.11-10.08v-2.43h9.12v12.51h1.81l-.26 4.54h-1.28v-3.11H64.4l-.28 3.11h-1.33zm11.1 0v-11.08h-6v1.81c0 3.61-.7 7.35-1.85 9.26zM83.26 127.9l.62-1.25a3.39 3.39 0 0 0 1.77.42c1 0 2-.54 2.79-2.09l-6.13-10.68h1.79l5.14 9.1 4.44-9.1h1.71l-5.52 11c-1.14 2.29-2.61 3.17-4.26 3.17a4.83 4.83 0 0 1-2.35-.57zM102.06 114.3h1.57v6.2h8v-6.2h1.57v13.94h-1.57V122h-8v6.27h-1.57zM126.34 114.2h1.47l6.35 14h-1.69l-1.63-3.69h-7.59l-1.65 3.69H120zm3.88 8.94l-3.17-7.14-3.19 7.11zM140.89 114.3h5.22c3.15 0 5.22 1.67 5.22 4.46 0 3-2.51 4.56-5.48 4.56h-3.39v4.92h-1.57zm5 7.59c2.31 0 3.82-1.24 3.82-3.11s-1.49-3-3.74-3h-3.53v6.14zM157.56 121.27a7.11 7.11 0 1 1 7.09 7.21 7.07 7.07 0 0 1-7.09-7.21zm12.59 0a5.54 5.54 0 0 0-5.5-5.76 5.49 5.49 0 0 0-5.46 5.76 5.54 5.54 0 0 0 5.5 5.76 5.49 5.49 0 0 0 5.46-5.76zM176.91 126.81h1.43c1.33-2.13 2.11-5.56 2.11-10.08v-2.43h9.12v12.51h1.81l-.24 4.54h-1.31v-3.11h-11.3l-.28 3.11h-1.33zm11.1 0v-11.08h-6v1.81c0 3.61-.7 7.35-1.85 9.26zM197.68 114.3h1.57v6.2h8v-6.2h1.57v13.94h-1.52V122h-8v6.27h-1.57zM222 114.2h1.47l6.35 14h-1.69l-1.63-3.69h-7.59l-1.65 3.69h-1.66zm3.88 8.94l-3.21-7.14-3.19 7.11zM239.74 122.64c-2.23-.4-3.8-1.81-3.8-4.14a3.88 3.88 0 0 1 1.06-2.79 5.68 5.68 0 0 1 4.06-1.41h6v13.94h-1.57v-5.34h-4l-4.14 5.34h-1.91zm5.7-1.08v-5.86h-4.28c-2.29 0-3.65 1.14-3.65 2.91s1.51 2.95 3.65 2.95zM262.82 128.06l.32-1.27a3.9 3.9 0 0 0 1.24.2c1.08 0 2.89-.66 2.89-10.16v-2.53h9v13.94h-1.57v-12.51h-5.94v1.51c0 9.78-2 11.16-4.14 11.16a6.13 6.13 0 0 1-1.8-.34zM283.59 121.27a7.11 7.11 0 1 1 7.09 7.21 7.07 7.07 0 0 1-7.09-7.21zm12.59 0a5.54 5.54 0 0 0-5.5-5.76 5.49 5.49 0 0 0-5.46 5.76 5.54 5.54 0 0 0 5.5 5.76 5.49 5.49 0 0 0 5.46-5.76zM305.11 114.3H314v1.43h-7.33v12.51h-1.57zM320.82 114.3h1.57v11.57l8.33-11.57h1.49v13.94h-1.55v-11.57l-8.31 11.57h-1.53zM339.52 121.27a7 7 0 0 1 7.05-7.21 7.19 7.19 0 0 1 5.4 2.25l-1 1.12a6.06 6.06 0 0 0-4.38-1.91 5.77 5.77 0 0 0 0 11.51 6.05 6.05 0 0 0 4.5-2l1 1.1a7.2 7.2 0 0 1-5.58 2.37 7 7 0 0 1-6.99-7.23zM362.5 115.73h-4.68v-1.43h11v1.43h-4.68v12.51h-1.64zM375.7 114.3h1.57v11.57l8.33-11.57h1.49v13.94h-1.55v-11.57l-8.31 11.57h-1.53zM395 114.3h1.57v8.33l8-8.33h2l-6 6.1 6.23 7.85h-2l-5.36-6.75-3 3v3.74H395zM418.48 114.2H420l6.36 14h-1.69l-1.67-3.65h-7.59l-1.65 3.69h-1.61zm3.88 8.94l-3.17-7.14-3.19 7.14z"/></g><path class="cls-3" d="M63.66 25.88A270.72 270.72 0 0 1 99.71 13.7c3.07-.85 6.16-1.56 9.25-2.29s6.2-1.41 9.31-2.09 6.24-1.24 9.36-1.83S133.9 6.4 137 5.88c6.28-1 12.58-1.93 18.9-2.6l4.74-.54 4.75-.46 4.75-.46 4.75-.38C187.62.52 200.34.1 213.05 0c12.72.11 25.44.51 38.12 1.46l4.75.38 4.75.46 4.75.46 4.74.54c6.32.67 12.62 1.58 18.9 2.6 3.14.52 6.28 1 9.4 1.61s6.26 1.11 9.36 1.83 6.22 1.32 9.31 2.08 6.19 1.44 9.25 2.29a271.21 271.21 0 0 1 36.06 12.17l-.19.57c-24-7.77-48.82-12.67-73.8-15.88A596 596 0 0 0 213.05 6a596.57 596.57 0 0 0-75.41 4.58c-25 3.21-49.82 8.11-73.8 15.88z" id="Иконочная_часть" data-name="Иконочная часть"/></g></svg>